<?xml version="1.0" encoding="utf-8"?>
<!-- Generator: Adobe Illustrator 24.1.0, SVG Export Plug-In . SVG Version: 6.00 Build 0)  -->
<svg version="1.1" id="Layer_1" xmlns="http://www.w3.org/2000/svg" xmlns:xlink="http://www.w3.org/1999/xlink" x="0px" y="0px"
	 viewBox="0 0 800 800" style="enable-background:new 0 0 800 800;" xml:space="preserve">
<style type="text/css">
	.st0{display:none;stroke:#000000;stroke-miterlimit:10;}
	.st1{stroke:#000000;stroke-miterlimit:10;}
</style>
<path class="st0" d="M401.63,789.82L401.63,789.82c-13.71,0-24.82-11.11-24.82-24.82V399.91c0-13.71,11.11-24.82,24.82-24.82h0
	c13.71,0,24.82,11.11,24.82,24.82V765C426.45,778.71,415.34,789.82,401.63,789.82z"/>
<path class="st1" d="M418.47,591.89h-36.94c-34.26,0-62.03-179.49-62.03-213.75V226.43c0-34.26,27.77-62.03,62.03-62.03h36.94
	c34.26,0,62.03,27.77,62.03,62.03V400C480.5,434.26,452.73,591.89,418.47,591.89z"/>
<path class="st0" d="M506.98,459.27H299.12c-61.29,0-110.97-49.68-110.97-110.97V189.39c0-61.29,49.68-110.97,110.97-110.97h207.85
	c61.29,0,110.97,49.68,110.97,110.97V348.3C617.94,409.59,568.26,459.27,506.98,459.27z"/>
</svg>
